<svg xmlns="http://www.w3.org/2000/svg" viewBox="0 0 90.76 15.59"><defs><style>.cls-1{fill:#65c8d0;}</style></defs><title>logo</title><g id="Layer_2" data-name="Layer 2"><g id="Layer_1-2" data-name="Layer 1"><path class="cls-1" d="M15.57,10.62a5,5,0,0,1-5,5H0V0H9.82a4.2,4.2,0,0,1,3.53,6.48A5,5,0,0,1,15.57,10.62ZM2.78,6h7c.79,0,1.43-1.05,1.43-1.84A1.43,1.43,0,0,0,9.82,2.78h-7Zm10,4.57c0-1.21-1-1.82-2.19-1.82H2.78v4h7.83A2.19,2.19,0,0,0,12.8,10.62Z"/><path class="cls-1" d="M32.3,7.79A7.79,7.79,0,1,1,24.51,0,7.79,7.79,0,0,1,32.3,7.79Zm-2.78,0a5,5,0,1,0-5,5A5,5,0,0,0,29.52,7.79Z"/><path class="cls-1" d="M37.07,7.79c0,2.77,1.49,5,4.26,5h4.48v-4h-4V6h6.77v9.53H40.79c-4.3,0-6.73-3.49-6.73-7.79S37,0,41.33,0h7.26V2.78l-7.26,0C38.56,2.79,37.07,5,37.07,7.79Z"/><path class="cls-1" d="M50.82,15.58V0H53.6V15.58Z"/><path class="cls-1" d="M66.88,0V2.79H63.25V15.59H60.48V2.79h-4V0Z"/><path class="cls-1" d="M81.66,15.58H78.54L77.11,12.8l-3.4-8.47-3.4,8.47L68.9,15.58H65.78l1.42-2.78L73.72,0l6.52,12.8Z"/><path class="cls-1" d="M76.23,12.85,73.72,6.6l-2.51,6.25"/><polygon class="cls-1" points="85.78 12.8 85.78 0 83 0 83 15.58 85.78 15.58 90.76 15.58 90.76 12.8 85.78 12.8"/></g></g></svg>